<svg version="1.1" xmlns="http://www.w3.org/2000/svg" xmlns:xlink="http://www.w3.org/1999/xlink" width="149.47114" height="191.27341" viewBox="0,0,149.47114,191.27341"><g transform="translate(-165.26442,-81.15161)"><g data-paper-data="{&quot;isPaintingLayer&quot;:true}" fill-rule="nonzero" stroke="none" stroke-width="0" stroke-linecap="butt" stroke-linejoin="miter" stroke-miterlimit="10" stroke-dasharray="" stroke-dashoffset="0" style="mix-blend-mode: normal"><g><path d="M196.26102,233.71464c-4.23756,0 -16.13044,2.05648 -22.63554,-5.52414c-6.70049,-7.80832 -7.95739,-25.35887 -8.23713,-32.30998c-0.64769,-16.09374 1.35247,-49.22717 3.46513,-54.80425c1.25817,-3.32136 4.17238,-5.87684 6.30136,-7.6545c7.27819,-6.07716 17.07443,-4.98312 21.96629,-4.98312c1.48496,0 6.81681,-0.1629 7.77928,2.13492c0.80005,1.91004 0.24096,5.08554 0.04321,8.42046c-0.42402,7.15082 -1.66222,16.89122 -1.6962,29.52455c-0.02511,9.33713 0.07704,20.36535 0.295,30.50423c0.2715,12.62986 1.39298,25.35077 -0.39607,31.43153c-0.92607,3.14762 -5.62395,3.26031 -6.88532,3.26031z" fill="#150004"/><g><path d="M194.11077,223.04942c-0.84053,0 -7.51945,3.14736 -11.93937,-0.08507c-3.46302,-2.53261 -5.11354,-11.43919 -5.2985,-12.45006c-1.48352,-8.10784 -1.3268,-19.70754 -1.42087,-29.43771c-0.11828,-12.23447 -0.19199,-24.65944 0.59028,-31.71898c0.44278,-3.99582 1.74433,-5.68815 2.01966,-6.10158c0.6969,-1.04646 1.62638,-2.4742 2.79227,-3.20515c1.54182,-0.96666 3.36828,-1.10119 4.34851,-1.32948c2.13774,-0.49786 4.78248,-0.57063 6.5639,-0.05769c1.46291,0.42123 2.23157,1.34947 2.61626,1.80453c0.48387,0.57239 -0.29938,7.87079 0.0012,16.51322c0.41899,12.04689 0.39422,29.25495 0.49397,42.84663c0.09811,13.36832 0.33349,23.22134 -0.7673,23.22134z" fill="#7b0235"/><path d="M175.96271,153.32414c0,0 -0.1263,-6.84771 2.52165,-10.81896c0.66954,-1.00414 3.1429,-2.95881 6.03084,-3.53125c3.70684,-0.73476 8.32935,-0.37662 9.17012,0.61019c0.27805,0.32636 0.94504,0.54933 1.01769,1.69928c0.19187,3.03699 -0.50623,9.28844 -0.50623,9.28844c0,0 -6.46274,-0.89736 -9.61086,-0.35768c-2.84097,0.48702 -8.62321,3.10999 -8.62321,3.10999z" fill="#c70909"/></g></g><g><path d="M209.79363,91.56698c10.82498,-11.07269 33.33589,-11.08145 44.20614,-9.91518c12.54353,1.34579 21.16218,6.08276 24.01081,7.80984c10.92066,6.62099 16.70296,17.79475 16.70296,17.79475c0,0 5.31335,13.13141 9.32424,34.51198c1.52912,8.15115 4.68441,30.77133 2.95003,54.23829c-2.20362,29.81604 -10.20641,60.99904 -16.56984,65.60888c-6.92444,5.01625 -21.64088,2.72538 -29.02163,0.13662c-2.67316,-0.9376 -3.01702,-1.91428 -3.60926,-2.59703c-1.4319,-1.65074 -3.1299,-3.97027 -3.80382,-6.79734c-1.10826,-4.64915 -0.7879,-11.53511 -1.87216,-14.46126c-0.51062,-1.37802 -4.84739,-2.20793 -4.84421,-2.14312c0.44337,9.04262 -0.25744,17.32235 -0.39053,22.81322c-0.12473,5.14586 -4.23001,8.18679 -5.07289,8.88832c-4.30336,3.58172 -13.35901,5.14675 -18.42712,4.95431c-5.27776,-0.2004 -16.01878,-0.90556 -20.38307,-4.47749c-1.33506,-1.09267 -4.99397,-6.78475 -5.9965,-15.2095c-1.69204,-14.21898 -2.83553,-36.63763 -3.07456,-57.45026c-0.29528,-25.70932 0.57103,-49.18656 0.87227,-54.34637c0,0 0.29578,-12.96855 3.30533,-24.31362c3.17782,-11.97944 9.14254,-22.43537 11.69381,-25.04503z" fill="#150004"/><path d="M297.59819,176.13827c0,4.53006 -0.49623,33.29185 -4.82708,54.45671c-1.38018,6.74494 -2.632,15.77604 -5.01074,19.91795c-1.22132,2.1266 -17.28159,6.61884 -23.0415,0.55866c-3.86221,-4.06355 -2.79473,-16.87941 -2.79473,-16.87941c0,0 8.83431,-2.02604 11.70394,-3.67306c3.56394,-2.04552 8.05163,-7.14116 8.05163,-7.14116c0,0 -6.12953,1.39576 -15.81809,1.7276c-8.88735,0.30439 -21.30998,-0.45276 -23.20285,-0.45276c-0.44652,0 -3.54207,0.43224 -4.03024,3.14614c-1.05426,5.86103 -0.44359,17.24691 -0.76472,24.75243c-0.07648,1.78765 0.90934,6.68722 -3.94971,8.87762c-8.66653,3.90676 -24.58177,3.8186 -26.02815,-0.74089c-2.72355,-8.58559 -5.39535,-44.76836 -4.8884,-81.65703c0.32636,-23.74735 1.20225,-47.78723 6.78397,-64.94537c1.03889,-3.19355 2.09354,-7.37341 4.21693,-10.46284c2.58407,-3.75969 6.49868,-6.28285 10.70212,-8.23582c9.44137,-4.38657 21.75822,-3.42802 23.46525,-3.42802c3.28293,0 21.74842,3.37067 27.7461,11.56768c0.10722,0.14654 2.41257,1.61738 3.82604,3.82164c3.25365,5.07393 7.41802,14.03391 9.41237,19.67271c6.96126,19.68218 8.44786,41.55321 8.44786,49.11723z" fill="#7b0235"/><path d="M297.43731,175.28201c-0.83428,4.73136 -5.6604,23.24454 -16.75242,32.45089c-5.62485,4.66861 -29.22072,5.68684 -35.68756,4.06852c-7.77301,-1.94519 -16.21076,-6.79601 -22.45686,-13.37926c-10.30097,-10.85699 -9.94856,-29.85827 -10.28383,-35.214c-0.68789,-10.98867 0.03387,-41.94785 2.14564,-56.36003c0.66018,-4.5055 2.87587,-6.44741 3.40345,-6.87209c4.50479,-3.62615 11.64499,-7.2995 18.15738,-8.41636c1.56479,-0.26836 9.57808,-0.8253 17.93482,0.78641c9.54482,1.84084 19.69743,6.19133 23.97318,11.48891c15.86931,19.66179 22.21112,56.44723 19.5662,71.44702z" fill="#c70909"/></g><g><path d="M270.73951,168.57655c-10.84062,0 -24.34542,-0.4126 -32.39044,-5.5358c-4.26767,-2.71773 -8.90297,-9.05456 -10.31517,-18.38118c-1.0933,-7.22051 0.43438,-17.74916 1.21239,-20.21304c1.65305,-5.23503 5.78265,-9.9596 10.25598,-13.17432c7.20971,-5.18121 20.1545,-5.13878 29.34502,-5.13878c7.21355,0 17.7176,0.39651 25.78666,2.28184c4.94336,1.15502 8.52176,3.29908 12.19492,6.65575c1.41082,1.28926 3.60414,3.40705 4.9184,6.12614c2.02956,4.19901 2.91559,9.83197 2.9831,16.06207c0.06621,6.1088 -0.42735,13.56934 -5.80406,18.67679c-2.50241,2.37709 -7.20217,6.37543 -14.94691,8.83697c-8.58206,2.72769 -20.27581,3.80356 -23.23991,3.80356z" fill="#0b2437"/><path d="M304.53106,142.76671c0,3.72547 -4.11431,7.2938 -8.6302,10.06341c-6.8329,4.19065 -16.68628,6.00812 -26.00798,6.00812c-8.24248,0 -18.26698,-0.80349 -24.33002,-4.88938c-1.09382,-0.73712 -3.03118,-2.21112 -4.42711,-4.13707c-1.55485,-2.14522 -2.54395,-4.85118 -3.15098,-7.72419c-1.50143,-7.10608 -0.09692,-15.57191 1.78249,-17.61654c0.55045,-0.59884 0.97684,-1.20812 1.58455,-1.80453c1.73805,-1.70575 3.90545,-3.30628 6.48559,-4.25654c1.52017,-0.55988 4.45021,-1.402 8.39286,-1.81708c4.38785,-0.46195 9.99488,-0.465 15.5753,-0.42775c7.53639,0.0503 15.58549,0.381 21.21466,1.64147c3.4193,0.76564 5.7605,2.05957 7.08501,3.30867c5.36629,5.06078 4.42583,17.50719 4.42583,21.65141z" fill="#4e7ea2"/><path d="M303.06334,128.82338c0,2.8485 2.06621,10.08885 -5.91762,13.9193c-5.07997,2.43724 -20.34329,2.44577 -23.06984,2.44577c-1.81099,0 -8.05749,-0.66809 -13.77739,-2.36652c-3.0265,-0.89867 -5.48284,-2.29716 -7.98208,-3.57507c-1.35979,-0.69529 -4.12887,-2.63616 -5.83794,-4.68366c-1.63236,-1.9556 -2.23333,-4.00848 -2.39795,-5.16628c-0.63745,-4.48329 1.11699,-10.25576 3.62412,-10.8777c0.80587,-0.19991 1.89308,-0.98042 3.93693,-1.3534c4.51154,-0.82331 19.94487,-1.39364 30.90068,-0.88295c5.38608,0.25106 13.37604,1.90295 14.5118,2.46884c1.34243,0.66886 2.79424,2.27538 3.60096,3.25145c2.11219,2.55558 2.40834,5.9354 2.40834,6.82022z" fill="#96cbdd"/><path d="M292.76085,131.41102c-2.86767,-0.17762 -4.56719,-1.31931 -7.51738,-1.92729c-3.39679,-0.70001 -7.76571,-0.25869 -9.9166,-1.32529c-2.00656,-0.99502 -2.93886,-4.52014 -2.93886,-5.35272c0,-1.92974 1.22012,-5.36192 5.10053,-5.81587c1.29848,-0.1519 7.98315,0.30179 11.47253,1.31699c2.25769,0.65685 4.87542,1.27739 6.80769,2.30573c1.42449,0.7581 3.38589,2.02353 4.10928,3.567c0.57414,1.22503 0.15114,2.6795 -0.39517,3.8085c-0.5034,1.04032 -1.08876,2.51599 -2.65489,3.04831c-1.1152,0.37905 -3.1618,0.43069 -4.06713,0.37462z" fill="#fcfcfc"/></g></g></g></svg>