<svg version="1.1" xmlns="http://www.w3.org/2000/svg" xmlns:xlink="http://www.w3.org/1999/xlink" width="39.31997" height="39.45669" viewBox="0,0,39.31997,39.45669"><g transform="translate(-220.34002,-160.27166)"><g data-paper-data="{&quot;isPaintingLayer&quot;:true}" fill-rule="nonzero" stroke="none" stroke-linecap="butt" stroke-linejoin="miter" stroke-miterlimit="10" stroke-dasharray="" stroke-dashoffset="0" style="mix-blend-mode: normal"><g data-paper-data="{&quot;index&quot;:null}"><g stroke-width="0"><path d="M221.25174,160.27166c0,0 21.73292,15.68807 20.72895,17.89455c-0.3939,0.86571 -5.23496,8.32066 -6.24078,8.26688c-0.437,-0.02337 0.2846,0.21351 -1.49063,-0.79341c-0.3652,-0.20714 -0.77426,-0.2308 -1.1818,-0.34881c-0.48481,-0.14038 -0.94691,-0.35941 -1.04431,-0.41575c-0.25854,-0.14954 -0.45644,-0.52379 -0.45006,-0.96789c0.00911,-0.63411 0.27175,-1.42785 -0.02088,-2.06007c-0.14573,-0.31484 -0.52534,0.00073 -1.13865,0.0346c-0.75134,0.0415 -1.75838,-0.18676 -1.94342,-0.62714c-0.0696,-0.16563 -0.36611,-0.68377 -0.43158,-1.1498c-0.09656,-0.68737 0.04265,-1.3828 -0.02368,-1.65753c-0.01497,-0.062 -0.7427,-0.17162 -1.45456,-0.30054c-1.14405,-0.2072 -2.53453,-0.59505 -3.0177,-1.89727c-0.65579,-1.76747 -2.67618,-4.93139 -3.01515,-7.28409c-0.68414,-4.74852 0.72424,-8.69372 0.72424,-8.69372z" fill="#121b1e"/><path d="M240.41019,178.64744c0,0 -0.68037,0.86632 -1.73027,2.30949c-0.7587,1.04289 -1.86299,2.75986 -2.3156,2.89213c-0.13046,0.03813 -0.60153,-0.16825 -1.05579,-0.1858c-0.63916,-0.02469 -1.21081,0.02394 -1.70717,-0.50014c-0.12953,-0.13676 -0.17053,-0.54384 -0.11265,-0.99226c0.09803,-0.75937 0.24072,-1.63921 0.04503,-1.93837c-0.19795,-0.30261 -0.74664,-0.26856 -1.37092,-0.27352c-0.76667,-0.00609 -1.59887,0.05843 -1.86786,-0.18429c-0.02411,-0.02175 -0.15707,-0.16992 -0.23226,-0.38358c-0.06777,-0.19258 -0.08055,-0.4414 -0.065,-0.64615c0.04749,-0.62544 0.33647,-1.33168 -0.26105,-1.88968c-0.94863,-0.88588 -3.47676,-0.88986 -4.45956,-2.12848c-1.31396,-1.65598 -2.04073,-3.5954 -2.57209,-4.7674c-2.36163,-5.209 -0.58693,-8.07273 -0.58693,-8.07273z" fill="#b0b9ba"/><path d="M236.36432,183.84905c-0.13046,0.03813 -0.60153,-0.16825 -1.05579,-0.1858c-0.63916,-0.02469 -1.21081,0.02394 -1.70717,-0.50014c-0.12953,-0.13676 -0.17053,-0.54384 -0.11265,-0.99226c0.00974,-0.07542 0.04977,-0.51419 0.10101,-0.94543c0.04289,-0.36101 0.06527,-0.83647 -0.05822,-1.04712c-0.07568,-0.1291 -0.3099,-0.12291 -0.54053,-0.16071c-0.3114,-0.05104 -0.6676,-0.11773 -1.10142,-0.09845c-0.70409,0.03128 -1.45226,0.09109 -1.74205,-0.29703c-0.69007,-0.92422 -0.00852,-2.28239 -0.70797,-3.01431c-0.227,-0.23753 -2.09201,-0.0419 -3.73676,-1.36528c-1.08516,-0.87313 -1.97282,-2.9863 -2.59257,-4.26138c-0.93454,-1.92271 -1.52685,-4.26712 -1.55982,-6.04887c-0.03497,-1.88985 0.51935,-3.16153 0.51935,-3.16153c0,0 1.62659,1.45194 1.67007,1.62837c0.05088,0.20646 -0.06541,2.22161 0.2331,4.27636c0.26957,1.85553 0.91453,3.71591 1.66472,4.79498c1.02455,1.4737 2.7162,2.43603 4.03088,3.55722c0.64521,0.55025 0.97366,1.20933 0.93811,1.70467c-0.03553,0.495 -0.18768,1.04566 0.27951,1.41601c0.33701,0.26715 1.71515,-0.13354 2.29046,0.05531c0.20804,0.06829 0.39418,0.14176 0.56015,0.21705c0.87762,0.39814 1.19093,0.8473 1.19379,0.8521c0.18175,0.30578 -0.48114,1.60152 -0.21646,1.91577c0.36889,0.43797 2.01557,0.6043 2.35156,0.89759c0.15399,0.13442 -0.65021,0.74795 -0.70127,0.76287z" fill="#d2e2e2"/><path d="M240.45886,178.68936c0,0 -2.56936,0.84685 -3.71389,1.15474c-1.0621,0.28572 -3.08472,0.79117 -3.08472,0.79117c0,0 -0.24013,-0.36649 -1.15989,-0.56182c-0.37958,-0.08061 -0.93487,-0.14402 -1.39225,-0.12565c-0.44528,0.01788 -0.93605,-0.14899 -1.09089,-0.31058c-0.26281,-0.27425 -0.15596,-1.22924 -0.21463,-1.81614c-0.09061,-0.90643 -0.45908,-1.33463 -0.45908,-1.33463l7.4193,-1.19743c0,0 2.50674,2.32524 2.85331,2.62796c0.62942,0.5498 0.84274,0.77238 0.84274,0.77238z" fill="#ffffff"/><path d="M235.91981,174.54497l-8.4601,1.62727c0,0 -1.07107,-0.36809 -1.42338,-0.61268c-0.15011,-0.10422 -0.34262,-0.3124 -0.51677,-0.49171c-0.1513,-0.15579 -0.28454,-0.35421 -0.28454,-0.35421l9.02528,-1.70296z" fill="#ffffff"/><path d="M238.99049,179.73986c0,0 -0.40114,0.40379 -0.61359,0.28491c-0.01751,-0.0098 -3.31612,-2.39739 -6.03862,-5.18968c-1.66376,-1.7064 -3.92224,-3.64332 -5.21625,-5.13429c-1.56408,-1.80214 -1.84292,-3.10331 -1.84292,-3.10331c0,0 1.99585,2.36716 3.57166,3.87758c2.52781,2.42291 10.13972,9.26479 10.13972,9.26479z" fill="#657a7c"/><path d="M221.55635,166.08496c0.10899,0.09904 0.21795,0.19813 0.32687,0.29726c-0.10622,-0.07874 -0.21252,-0.15713 -0.31885,-0.2351c-0.00274,-0.02079 -0.00542,-0.04151 -0.00802,-0.06217z" fill="#b0b9ba"/></g><g><g><path d="M256.48719,189.66587c0.80497,-0.40283 1.9589,-0.1239 2.17334,-0.02633c0.29353,0.13356 0.90338,0.54184 0.99197,1.25759c0.06117,0.49415 -0.26457,1.15734 -0.54963,1.88613c-0.36628,0.93644 -1.10915,2.38821 -1.76966,3.27576c-0.40306,0.54162 -0.85455,0.70901 -0.94086,0.89872c-0.31576,0.69397 -2.07174,2.14318 -3.65597,2.65403c-0.91086,0.29371 -1.86572,-0.04196 -2.19992,-0.19403c-0.11815,-0.05376 -0.67588,-0.64305 -1.07182,-1.38618c-0.2392,-0.44894 -0.35341,-0.94504 -0.68172,-1.46847c-0.11993,-0.19121 -0.26843,-0.38606 -0.46202,-0.5836c-0.2132,-0.21754 -0.69185,-0.14729 -0.92264,-0.37196c-0.48236,-0.46958 -0.791,-0.94985 -1.30502,-1.44306c-0.36212,-0.34746 -1.29359,-0.62637 -1.66032,-0.97202c-0.37944,-0.35764 -0.88628,-1.02384 -1.22739,-1.37016c-0.49775,-0.50536 -1.21226,-0.72295 -1.58943,-1.1313c-0.41906,-0.4537 -0.46815,-0.9054 -0.8249,-1.34799c-0.44614,-0.55349 -1.15663,-1.06315 -1.18399,-1.20506c-0.0142,-0.07366 0.82244,-1.49245 2.26697,-3.14128c1.56341,-1.78453 3.78035,-3.80216 4.79389,-3.6772c0.50177,0.06186 1.01067,1.06307 1.98227,1.93164c0.35677,0.31894 1.35075,0.59892 1.6099,0.83799c0.95141,0.8777 0.82624,0.88134 1.75298,1.84173c0.97918,1.01474 1.94901,1.18692 2.56335,1.87228c0.42558,0.47479 0.53959,1.81709 0.67835,1.80415c0.53848,-0.05023 0.93624,0.20676 1.23227,0.05861z" fill="#020704" stroke-width="NaN"/><path d="M251.07782,194.69555c0.04476,-0.09837 0.04296,-0.37802 0.25107,-0.65054c0.7927,-1.03802 2.64741,-2.8751 3.2148,-2.61693c0.2526,0.11494 0.50317,0.69043 1.01221,0.66493c0.33883,-0.01697 0.53611,-0.46548 0.84453,-0.54762c0.54224,-0.14441 1.09798,0.07576 1.00916,0.27097c-0.10548,0.23181 -1.2379,2.37105 -2.56074,3.77116c-1.37672,1.45715 -2.95065,2.1694 -3.31597,2.00318c-0.16049,-0.07302 -0.3943,-0.17732 -0.37079,-0.41499c0.02982,-0.30148 0.34357,-0.76883 0.31667,-1.12372c-0.02943,-0.38839 -0.53367,-0.63944 -0.6462,-0.90062c-0.0654,-0.1518 0.20635,-0.3703 0.24526,-0.45581z" fill="#0d2220" stroke-width="0"/><path d="M251.47951,196.06785c0.00669,-0.18979 -0.38584,-0.62808 -0.38584,-0.62808c0,0 0.65864,-1.21821 1.63645,-2.00921c0.397,-0.32116 0.86288,-0.69393 1.29544,-0.95656c0.70623,-0.42879 1.54144,-0.37175 1.5943,-0.35256c0.06808,0.02472 -1.50746,0.91376 -2.256,1.79954c-0.9621,1.13851 -1.89005,2.30837 -1.88435,2.14687z" fill="#1f3930" stroke-width="0"/></g><path d="M249.54537,186.02131c0.28958,0.13176 0.5378,0.55947 0.65551,0.95032c0.05778,0.19184 -0.06458,0.38777 0.03171,0.57343c0.1648,0.31774 0.51076,0.58153 0.85572,0.71168c0.84731,0.31968 2.10281,0.60314 1.89191,1.06664c-0.08604,0.18909 -0.51735,0.32607 -0.80807,0.58875c-0.55645,0.50278 -1.14819,1.21567 -1.67926,1.87897c-0.63983,0.79915 -0.62701,1.83916 -1.18912,1.5834c-0.08443,-0.03842 -0.80539,-0.28952 -1.18226,-0.59201c-0.05911,-0.04745 -0.13232,-0.31816 -0.38197,-0.47547c-0.45497,-0.2867 -1.22539,-0.53682 -1.64988,-0.779c-0.28944,-0.16513 -0.46985,-0.43233 -0.74545,-0.66765c-0.05205,-0.04444 -0.46144,-0.31958 -0.64791,-0.62457c-0.15189,-0.24844 -0.06038,-0.43197 -0.3402,-0.70672c-0.16329,-0.16033 -0.27989,-0.45008 -0.66892,-0.73141c-0.53899,-0.38977 -1.3895,-0.87959 -1.79264,-1.31702c-0.3632,-0.39409 -0.14008,-0.80069 -0.33904,-1.02591c-0.10189,-0.11533 0.55183,-0.966 1.42615,-1.93963c0.65332,-0.72753 1.42073,-1.649 2.13728,-1.70477c0.50821,-0.03955 1.0339,0.33906 1.34817,0.83387c0.164,0.25822 0.21107,0.61861 0.37846,0.88323c0.17329,0.27395 0.53922,0.60755 0.99642,0.85698c0.30026,0.16381 0.55249,0.06538 0.84716,0.17974c0.32542,0.1263 0.71544,0.39308 0.85623,0.45714z" fill="#355a4d" stroke-width="0"/><path d="M249.9906,189.68153c0,0 -0.72282,0.62561 -1.02132,1.00717c-0.36473,0.46623 -1.03348,1.80499 -1.03348,1.80499c0,0 -0.32986,-0.26462 -0.55976,-0.36923c-0.19387,-0.08821 -0.7366,-0.32146 -0.7366,-0.32146c0,0 0.7467,-1.53427 1.08457,-2.13751c0.23244,-0.41501 1.0089,-1.04147 1.0089,-1.04147c0,0 0.24948,0.37081 0.45612,0.54457c0.21243,0.17862 0.80157,0.51295 0.80157,0.51295z" fill="#1f3930" stroke-width="0"/><path d="M249.54537,186.02131c0.28958,0.13176 0.5378,0.55947 0.65551,0.95032c0.05778,0.19184 -0.06458,0.38777 0.03171,0.57343c0.1648,0.31774 0.51076,0.58153 0.85572,0.71168c0.84731,0.31968 2.10281,0.60314 1.89191,1.06664c-0.08604,0.18909 -0.51735,0.32607 -0.80807,0.58875c-0.04445,0.04016 -0.51947,0.59031 -0.78499,0.79479c-0.19175,0.14768 -0.70734,-0.22802 -0.89389,-0.39762c-0.18335,-0.1667 -0.19495,-0.31618 -0.40164,-0.5336c-0.08967,-0.09433 -0.17513,-0.10068 -0.34443,-0.15981c-0.22809,-0.07966 -0.53803,-0.3184 -0.66961,-0.4675c-0.12179,-0.13801 -0.32815,-0.31935 -0.45085,-0.46667c-0.13561,-0.16284 -0.21374,-0.64175 -0.34822,-0.81291c-0.07408,-0.09428 -0.31605,-0.31618 -0.73767,-0.56972c-0.08245,-0.04958 -0.36968,-0.1866 -0.68303,-0.23322c-0.37345,-0.05556 -0.77564,-0.01851 -0.79693,-0.04656c-0.07066,-0.09309 -0.40026,-0.40525 -0.68173,-0.62993c-0.28166,-0.22483 -0.7381,-0.36937 -0.79522,-0.45987c-0.05097,-0.08076 0.24016,-0.57963 -0.00479,-0.85317c-0.34796,-0.38856 -1.25586,-0.58379 -1.27672,-0.72703c-0.0517,-0.35507 0.26265,-0.59952 0.5657,-0.84289c0.48955,-0.39313 0.97801,-0.74185 1.12502,-0.75329c0.50821,-0.03955 1.15964,0.39628 1.47392,0.89108c0.164,0.25822 0.21107,0.61861 0.37846,0.88323c0.17329,0.27395 0.53922,0.60755 0.99642,0.85698c0.30026,0.16381 0.55249,0.06538 0.84716,0.17974c0.32542,0.1263 0.71544,0.39308 0.85623,0.45714z" fill="#1f3930" stroke-width="0"/><path d="M251.57491,188.3803c0,0 -0.58858,0.48983 -0.85223,0.68089c-0.23606,0.17106 -0.7377,0.61778 -0.7377,0.61778c0,0 -0.54874,-0.30427 -0.74913,-0.47215c-0.20454,-0.17135 -0.55574,-0.54793 -0.55574,-0.54793c0,0 0.35124,-0.41088 0.55643,-0.67387c0.26462,-0.33917 1.00308,-1.04613 1.00308,-1.04613c0,0 0.03145,0.6563 0.23716,0.91711c0.20883,0.26476 1.09813,0.52431 1.09813,0.52431z" fill="#0d2220" stroke-width="0"/><path d="M248.10897,185.46943c0,0 -0.78663,0.37619 -1.05922,0.61114c-0.34615,0.29836 -0.9545,1.02756 -0.9545,1.02756c0,0 -0.3131,-0.4536 -0.61686,-0.66681c-0.23618,-0.16578 -0.96935,-0.46758 -0.96935,-0.46758c0,0 0.81146,-0.87787 1.19496,-1.23443c0.30719,-0.2856 0.89885,-0.75307 0.89885,-0.75307c0,0 0.35786,0.47046 0.5825,0.70186c0.25687,0.2646 0.92362,0.78134 0.92362,0.78134z" fill="#0d2220" stroke-width="0"/><path d="M245.41298,186.35302c0.29262,0.19478 0.72047,0.7338 0.72047,0.7338c0,0 -0.43873,0.47307 -0.61716,0.78132c-0.2781,0.48042 -0.98746,1.91936 -0.98746,1.91936c0,0 -0.12115,-0.17975 -0.30671,-0.40293c-0.18503,-0.22254 -0.50817,-0.46714 -0.65858,-0.60691c-0.26513,-0.24638 -0.81925,-0.61226 -0.81925,-0.61226c0,0 1.10887,-1.52552 1.4675,-1.92149c0.24418,-0.26962 0.32604,-0.26998 0.32604,-0.26998c0,0 0.62276,0.21108 0.87515,0.37909z" fill="#1f3930" stroke-width="0"/></g><g stroke-width="0"><path d="M233.53013,186.7186c0.16064,-0.35306 1.61832,-1.42045 2.78038,-2.75006c0.84723,-0.96939 2.2545,-2.9907 3.24535,-4.49846c1.01051,-1.53768 1.6058,-2.56256 2.58913,-3.60656c0.82446,-0.87532 1.43653,-1.59702 2.00023,-1.93673c0.7653,-0.46121 1.59697,-0.41415 1.81958,-0.31286c0.47276,0.21511 2.39336,0.88694 3.81118,2.13789c1.69192,1.4928 2.85183,3.63427 2.50726,4.39156c-0.00149,0.00327 -0.34423,0.31884 -1.07456,0.26921c-0.74143,-0.05038 -1.87733,-0.46382 -2.79005,-0.17086c-1.54351,0.49544 -2.76375,1.9687 -4.02429,3.02523c-3.31201,2.77596 -4.32169,7.16716 -4.21443,7.77536c0.1567,0.88861 0.44437,2.10965 0.08828,2.69334c-0.24906,0.40825 -1.01765,0.37888 -1.49559,0.24135c-1.30804,-0.37642 -3.87703,-1.6923 -4.80965,-2.6889c-0.55853,-0.59685 -1.38024,-1.84462 -1.38764,-2.73585c-0.00794,-0.95701 0.82467,-1.54767 0.95481,-1.83367z" fill="#020705"/><path d="M248.31122,178.18381c0,0 -1.03258,-0.12683 -2.25179,0.66399c-1.53807,0.99763 -3.42218,3.05432 -4.45254,4.18531c-1.00483,1.10297 -2.80205,3.73893 -3.70829,5.40281c-0.78452,1.44041 -0.7541,2.00521 -0.7541,2.00521c0,0 -2.63883,-1.04244 -1.7144,-2.31574c0.6211,-0.85551 2.94436,-3.47403 5.45522,-6.5773c1.48809,-1.83919 3.04925,-4.42282 4.34146,-5.34626c0.66628,-0.47613 1.10128,0.22142 1.56534,0.53667c0.88926,0.60411 1.51911,1.4453 1.51911,1.4453z" fill="#1f3930"/></g></g></g></g></svg>